<?xml version="1.0" encoding="UTF-8" standalone="no"?><!DOCTYPE svg PUBLIC "-//W3C//DTD SVG 1.1//EN" "http://www.w3.org/Graphics/SVG/1.1/DTD/svg11.dtd"><svg width="100%" height="100%" viewBox="0 0 1841 1278" version="1.1" xmlns="http://www.w3.org/2000/svg" xmlns:xlink="http://www.w3.org/1999/xlink" xml:space="preserve" xmlns:serif="http://www.serif.com/" style="fill-rule:evenodd;clip-rule:evenodd;stroke-linejoin:round;stroke-miterlimit:2;"><rect id="Middleburg-Books" serif:id="Middleburg Books" x="0" y="0" width="1840.179" height="1277.987" style="fill:none;"/><g id="Layer-1" serif:id="Layer 1"><path d="M793.193,294.933c-3.337,-6.504 -10.1,-10.962 -17.913,-10.962c-1.571,0 -3.046,0.292 -4.483,0.675c0.575,3.463 0.963,6.975 0.967,10.596c0,3.425 -0.325,6.754 -0.837,10.025c1.4,0.358 2.833,0.629 4.354,0.629c7.812,0 14.575,-4.458 17.913,-10.962m-34.067,20.258c2.958,-5.704 4.433,-12.354 4.429,-19.942c-0.004,-7.479 -1.487,-14.087 -4.45,-19.817c-2.962,-5.733 -7.013,-10.521 -12.146,-14.367c-4.067,-3.046 -8.792,-5.425 -14.025,-7.283l-29.021,0l-9.75,-20.062l24.817,0c0.142,-0.662 0.296,-1.325 0.429,-1.987c1.162,-5.783 1.475,-11.35 0.829,-16.675c-0.771,-6.367 -2.888,-12.263 -6.354,-17.675c-3.462,-5.417 -8.479,-10.017 -15.054,-13.808c-6.479,-3.733 -12.946,-5.754 -19.388,-6.054c-6.446,-0.296 -12.617,0.817 -18.517,3.338c-4.942,2.117 -9.621,5.179 -14.067,9.083c-0.862,0.754 -1.729,1.492 -2.571,2.317c-3.646,3.558 -6.979,7.604 -10.033,12.079c-3.029,-4.417 -6.321,-8.417 -9.913,-11.946c-0.812,-0.796 -1.65,-1.508 -2.483,-2.242c-4.458,-3.946 -9.163,-7.038 -14.133,-9.154c-5.9,-2.517 -12.062,-3.633 -18.483,-3.338c-6.421,0.292 -12.917,2.338 -19.487,6.133c-6.475,3.746 -11.454,8.333 -14.933,13.767c-3.483,5.429 -5.604,11.333 -6.371,17.704c-0.633,5.292 -0.329,10.833 0.804,16.588c0.121,0.621 0.267,1.246 0.396,1.871l21.833,0l-9.754,20.062l-24.904,0c-5.592,1.888 -10.571,4.4 -14.862,7.621c-5.129,3.85 -9.175,8.629 -12.129,14.342c-2.958,5.704 -4.433,12.354 -4.429,19.942c0.004,7.479 1.488,14.083 4.45,19.817c2.963,5.729 7.017,10.521 12.146,14.367c4.271,3.196 9.221,5.704 14.771,7.596c1.129,0.387 2.242,0.783 3.421,1.112c0.246,0.071 0.513,0.108 0.763,0.171l16.529,-32.875l13.904,0l-16.85,34.571l25.008,0l-0.817,15.821l-28.546,0c-0.233,0.983 -0.433,1.963 -0.629,2.933c-1.163,5.783 -1.475,11.354 -0.833,16.675c0.775,6.371 2.892,12.263 6.354,17.675c3.462,5.417 8.483,10.021 15.058,13.808c6.479,3.738 12.942,5.754 19.388,6.054c6.446,0.3 12.617,-0.817 18.513,-3.337c4.942,-2.113 9.625,-5.179 14.071,-9.083c0.629,-0.55 1.25,-1.117 1.875,-1.688l-22.425,-28.188l21.192,0l11.925,15.529c0.013,-0.017 0.025,-0.033 0.038,-0.05c0.229,0.333 0.483,0.621 0.717,0.95l12.596,-16.429l20.808,0l-22.625,28.854c0.3,0.262 0.596,0.546 0.896,0.812c4.463,3.946 9.163,7.033 14.138,9.154c5.9,2.517 12.062,3.633 18.483,3.337c6.421,-0.292 12.917,-2.337 19.487,-6.137c6.475,-3.742 11.454,-8.329 14.933,-13.762c3.483,-5.429 5.604,-11.333 6.371,-17.7c0.633,-5.296 0.329,-10.833 -0.804,-16.592c-0.183,-0.933 -0.383,-1.871 -0.6,-2.817l-36.371,0l10.908,-16.15l20.212,0l-16.354,-34.242l13.558,-0.083l16.542,32.7c0.4,-0.104 0.821,-0.158 1.212,-0.271c1.146,-0.317 2.225,-0.7 3.321,-1.071c5.592,-1.883 10.571,-4.396 14.858,-7.617c5.129,-3.854 9.175,-8.633 12.129,-14.342m583.854,-8.342c-0.312,0.004 -10.067,0.021 -26.562,0.046l0,68.833l-12.821,0l0,0.004l-24.546,0l0,-17.775l13.062,0l0,-17.267l-13.317,0l0,-17.771l13.317,0l0,-15.988c-12.833,0.017 -27.633,0.042 -43.842,0.067l0,15.921l13.317,0l0,17.771l-13.317,0l0,17.267l13.062,0l0,17.775l-24.546,0l0,-0.004l-12.817,0l0,-68.696c-58.746,0.087 -179.179,0.188 -242.833,0.279l-34.5,17.254l-34.304,-17.154c-54.767,0.075 -44.308,0.129 -44.308,0.129c-22.325,-0.208 -44.654,0.696 -66.917,2.529c-6.762,0.554 -12.142,3.054 -16.433,8.892c-5.496,7.479 -14.346,14.083 -25.104,13.975c-2.108,2.954 -4.371,5.8 -6.983,8.383c-4.004,3.963 -8.429,7.363 -13.275,10.204c-1.271,0.746 -2.642,1.325 -3.962,1.987c0.104,1.529 0.171,3.062 0.167,4.596c-0.008,5.604 -0.721,11.129 -2.142,16.579c-1.425,5.446 -3.504,10.604 -6.237,15.475c-2.737,4.871 -6.1,9.354 -10.1,13.458c-4,4.104 -8.571,7.646 -13.725,10.625c-5.2,3.004 -10.592,5.208 -16.179,6.613c-5.587,1.408 -11.179,2.1 -16.775,2.079c-5.592,-0.025 -11.104,-0.779 -16.533,-2.262c-5.433,-1.483 -10.592,-3.617 -15.475,-6.392c-1.321,-0.754 -2.546,-1.671 -3.812,-2.512c-1.258,0.846 -2.475,1.762 -3.787,2.521c-4.858,2.796 -10,4.938 -15.429,6.429c-5.429,1.492 -10.937,2.271 -16.521,2.337c-5.588,0.067 -11.154,-0.604 -16.704,-2.017c-5.554,-1.413 -10.908,-3.604 -16.062,-6.575c-5.204,-3 -9.808,-6.571 -13.821,-10.704c-4.013,-4.133 -7.408,-8.633 -10.183,-13.488c-2.779,-4.858 -4.883,-10.008 -6.312,-15.45c-1.429,-5.45 -2.163,-10.979 -2.2,-16.6c-0.008,-1.538 0.05,-3.075 0.15,-4.617c-1.321,-0.646 -2.683,-1.225 -3.954,-1.958c-4.854,-2.813 -9.279,-6.192 -13.287,-10.15c-4.004,-3.954 -7.433,-8.333 -10.283,-13.137c-2.85,-4.804 -5.05,-9.963 -6.608,-15.475c-1.554,-5.512 -2.333,-11.246 -2.333,-17.196c-0.004,-6.008 0.783,-11.779 2.358,-17.321c1.575,-5.546 3.771,-10.733 6.587,-15.567c2.817,-4.833 6.225,-9.229 10.225,-13.192c4.004,-3.958 8.429,-7.358 13.275,-10.2c1.275,-0.746 2.642,-1.329 3.967,-1.987c-0.104,-1.533 -0.171,-3.067 -0.171,-4.6c0.013,-5.608 0.725,-11.129 2.146,-16.579c1.425,-5.446 3.504,-10.604 6.238,-15.475c2.737,-4.871 6.1,-9.354 10.1,-13.462c3.996,-4.1 8.571,-7.642 13.721,-10.617c5.204,-3.008 10.596,-5.213 16.183,-6.621c5.588,-1.404 11.179,-2.096 16.771,-2.075c5.596,0.025 11.108,0.775 16.538,2.262c5.433,1.483 10.592,3.617 15.475,6.392c1.321,0.75 2.546,1.671 3.812,2.513c1.258,-0.842 2.475,-1.763 3.783,-2.517c4.862,-2.796 10.004,-4.938 15.433,-6.433c5.429,-1.492 10.933,-2.267 16.521,-2.337c5.583,-0.062 11.15,0.608 16.704,2.017c5.55,1.412 10.904,3.604 16.058,6.575c5.204,3 9.812,6.567 13.825,10.704c4.013,4.137 7.404,8.633 10.183,13.487c2.775,4.858 4.879,10.008 6.308,15.45c1.429,5.45 2.163,10.979 2.2,16.6c0.008,1.537 -0.046,3.079 -0.15,4.621c1.321,0.646 2.688,1.225 3.958,1.958c4.85,2.812 9.275,6.192 13.283,10.146c2.396,2.367 4.517,4.938 6.5,7.608c11.096,-0.454 20.012,6.325 25.642,13.979c4.292,5.838 9.671,8.342 16.433,8.896c22.263,1.833 44.592,2.738 66.917,2.529c0,0 -9.921,-0.183 45.458,-0.446l33.154,-16.579l32.542,16.271c134.908,-0.625 356.108,-1.4 363.8,-1.312l0,26.471Zm-682.433,25.4c0,-2.933 -0.796,-5.504 -2.358,-7.633c-1.592,-2.179 -3.95,-3.908 -6.896,-5.404c-6.863,-3.479 -14.033,-4.9 -25.625,-5.887l-11.696,-0.933l0,36.95l20.65,0c4.233,0 8.037,-0.375 11.317,-1.117c3.233,-0.729 5.958,-1.8 8.104,-3.183c2.112,-1.358 3.737,-3.025 4.85,-4.963c1.096,-1.925 1.654,-5.396 1.654,-7.829m-46.575,-26.842l14.25,1.433c4.083,0.4 10.412,1.017 12.429,1.025c6.104,0.029 12.35,-2.717 12.342,-9.587c-0.004,-1.604 -0.617,-2.775 -1.342,-3.979c-2.275,-3.775 -8.983,-6.021 -14.392,-7.213c-7.796,-1.721 -23.287,-1.721 -23.287,-1.721l0,20.042Zm65.662,28.542c0,3.292 -0.75,6.413 -2.208,9.275c-1.488,2.887 -3.9,5.421 -7.175,7.529c-3.233,2.079 -7.496,3.738 -12.675,4.925c-5.117,1.175 -11.5,1.771 -18.967,1.771l-41.979,0l0,-77.342l41.412,0c5.642,0 10.567,0.383 14.633,1.129c4.121,0.758 7.558,1.867 10.229,3.296c2.742,1.462 4.788,3.271 6.108,5.367c1.342,2.113 2.017,4.488 2.017,7.071c0,1.742 -0.438,3.471 -1.304,5.129c-0.871,1.662 -2.292,3.188 -4.233,4.537c-1.888,1.317 -4.429,2.471 -7.558,3.429c-1.367,0.417 -2.892,0.788 -4.554,1.104c7.746,1.396 13.775,3.654 17.967,6.75c5.496,4.046 8.287,9.438 8.287,16.029m-9.683,-124.787l32.454,76.762l-22.479,0l-0.279,-0.688l-24.987,-60.225l-20.4,35.75l-9.575,0l-22.383,-34.762l-28.004,60.117l-10.938,0l0.729,-1.575l31.367,-68.221l3.596,-7.158l7.604,0l0.333,0.496l26.212,39.587l17.354,-32.929l3.596,-7.154l15.8,0Z" style="fill:#fff;fill-rule:nonzero;"/><path d="M1225.864,1007.697c17.254,28.533 42.467,41.138 61.704,25.213c15.925,-13.933 -12.942,-48.775 -41.142,-77.296c-23.217,-23.9 -43.792,-55.083 -22.892,-72.004c8.963,-7.288 21.567,-10.275 34.842,-10.275c17.254,0 33.171,6.633 44.125,18.904l-18.913,14.933c-11.95,-19.571 -34.833,-33.517 -48.108,-23.562c-11.612,8.629 5.642,28.533 29.525,54.75c33.842,36.825 60.713,73.65 30.517,100.858c-21.229,18.567 -69.337,11.938 -90.892,-13.608l21.233,-17.913Zm-110.142,-15.592l-13.612,18.579l0,97.2l-23.55,0l0,-232.233l23.55,0l0,119.763l69.675,-119.763l28.533,0l-76.304,105.175c18.579,-5.308 34.829,31.183 51.412,58.058c21.904,35.163 46.125,47.433 78.638,47.433c21.888,0 39.142,-8.292 51.092,-19.904l0,17.921c0,21.892 -32.192,25.871 -51.763,25.546c-46.108,-0.667 -74.308,-27.204 -95.204,-69.013c-12.621,-24.879 -26.217,-66.688 -42.467,-48.763m-196.771,0c0,36.825 -16.6,69.671 -42.8,91.563c18.913,13.929 41.138,20.242 63.696,16.262c49.767,-9.3 80.283,-65.696 69.004,-125.75c-10.946,-60.042 -59.721,-100.846 -109.475,-91.562c-10.954,1.996 -20.908,6.308 -29.858,12.608c29.858,21.567 49.433,57.067 49.433,96.879m-53.746,81.942c21.233,-23.883 31.183,-61.046 23.883,-99.533c-4.983,-26.871 -17.254,-49.762 -34.171,-66.35c-21.233,23.888 -31.521,60.379 -24.221,99.2c4.983,26.871 17.588,50.1 34.508,66.683m-45.117,26.204c10.608,-1.983 20.225,-5.963 28.854,-11.938c-29.858,-21.567 -49.096,-56.733 -49.096,-96.546c0,-37.479 17.254,-70.996 44.125,-92.888c-18.917,-13.946 -41.475,-20.242 -64.367,-15.929c-49.096,9.288 -79.95,64.692 -68.671,124.746c10.946,60.042 60.042,101.517 109.154,92.554m-140.017,-108.146c0,-66.029 53.421,-119.442 119.438,-119.442c21.571,0 42.133,5.642 59.721,15.929c17.575,-10.288 38.15,-16.263 60.042,-16.263c66.029,0 119.438,53.425 119.438,119.438c0,66.017 -53.408,119.442 -119.438,119.442c-21.554,0 -42.129,-5.642 -59.708,-15.929c-17.587,10.288 -38.15,16.25 -60.054,16.25c-66.017,0 -119.438,-53.408 -119.438,-119.425m-51.95,40.85c-4.312,-25.529 -32.621,-47.083 -65.112,-52.388l-7.958,-0.996l0,116.721c62.921,5.533 80.033,-22.875 73.071,-63.338m-10.946,-108.092c-4.971,-26.533 -34.275,-42.442 -62.125,-42.779l0,88.867c32.496,7.625 68.758,-8.954 62.125,-46.087m-85.667,-49.079l23.542,0c29.179,0 74.729,6.637 84.342,36.479c10.283,31.833 -6.963,57.696 -36.471,65.654c20.888,4.971 44.429,19.233 50.4,49.075c8.287,39.788 -17.242,75.929 -51.729,79.579c-10.275,0.996 -31.287,1.325 -46.542,1.325l-23.542,0l0,-232.112Zm614.512,-171.988c-4.325,-25.612 -32.721,-47.233 -65.321,-52.554l-7.983,-1l0,117.088c63.121,5.554 80.287,-22.946 73.304,-63.533m-10.979,-108.433c-4.987,-26.617 -34.383,-42.579 -62.325,-42.917l0,89.15c32.6,7.65 68.979,-8.983 62.325,-46.233m-85.938,-49.233l23.613,0c29.275,0 74.967,6.654 84.612,36.592c10.312,31.933 -6.983,57.875 -36.588,65.863c20.954,4.983 44.571,19.292 50.558,49.229c8.317,39.912 -17.296,76.171 -51.892,79.833c-10.308,0.996 -31.388,1.325 -46.692,1.325l-23.613,0l0,-232.842Zm480.971,115.808c0,-77.296 36.504,-119.104 81.287,-119.104c22.558,0 42.8,10.625 57.721,30.867l-21.888,20.562c-12.942,-26.538 -35.833,-43.121 -58.396,-37.163c-26.871,6.967 -40.467,39.479 -32.175,110.812c8.625,74.321 36.154,105.829 67.675,102.188c6.633,-0.671 12.608,-2.987 17.913,-6.967l1.325,-1.004c23.562,-17.913 4.65,-81.275 -11.613,-110.467l38.162,0l0,126.729l-17.921,0c0,-6.308 -0.338,-8.292 -1.662,-8.292c-11.938,7.621 -25.213,11.612 -39.142,11.612c-44.783,0 -81.287,-38.487 -81.287,-119.775m-59.05,-67.004c-4.971,-22.562 -19.237,-41.475 -56.733,-42.8l0,130.046c42.467,-15.925 66.017,-46.779 56.733,-87.246m-19.237,114.121c-8.292,-25.213 -19.25,-23.55 -37.496,-17.913l0,87.25l-23.55,0l0,-232.233l23.55,0c36.825,0 72.658,7.633 80.617,43.792c9.296,41.808 -13.263,73.317 -52.417,91.238c9.296,1.983 18.913,8.292 26.213,21.233c16.588,29.525 24.221,63.7 38.154,75.971l-33.183,0c-8.963,-9.283 -12.604,-41.142 -21.888,-69.337m-173.208,72.658c-44.129,0 -66.35,-37.496 -67.342,-96.546l0,-139.008l23.55,0l0,139.008c1.325,52.754 13.275,85.925 44.783,85.925c29.2,-0.337 41.138,-32.512 41.138,-85.587l0,-139.346l23.562,0l0,139.346c-0.667,60.042 -21.233,96.208 -65.692,96.208m-370.925,-235.554l96.533,-0.337l0,23.563c-23.883,-8.958 -49.754,-13.275 -72.979,-15.267l0,63.696c15.258,-0.321 31.854,-1.325 47.446,-3.308l0,16.917c-15.592,-1.996 -32.187,-2.65 -47.446,-2.987l0,63.367c5.638,-2.654 12.938,-1.983 22.221,-0.658c14.938,2.317 23.888,2.987 35.167,0c5.975,-1.663 12.942,-5.317 16.596,-8.625l-0.333,16.583c0,6.629 -10.621,10.946 -19.908,10.621c-14.267,-0.333 -29.188,-7.967 -39.812,-9.296c-10.608,-1.325 -22.892,-1.325 -37.483,8.962l0,-163.229Zm-2.65,200.379c21.888,0 49.096,12.617 68,12.617c17.254,0 26.871,-8.962 35.5,-17.254l0.333,17.575c0.333,17.254 -16.583,20.913 -32.179,20.575c-25.213,-0.667 -42.8,-21.229 -72.325,-21.229c-24.221,0 -33.179,8.958 -39.812,19.571l-23.55,0l0,-232.233l23.55,0l0,221.621c6.633,-10.621 15.929,-21.242 40.483,-21.242m-195.113,24.217c33.183,-2.65 72.663,-53.408 64.704,-128.721c-5.317,-49.433 -28.871,-84.596 -62.708,-89.567c-12.938,-1.996 -21.9,-1.325 -25.879,-1.004l0,218.638c3.979,0.992 10.946,1.658 23.883,0.654m-27.862,7.638l-19.571,0l0,-232.233l21.233,0c0.333,0 18.242,-0.992 29.188,0c25.212,2.317 78.3,15.925 86.592,87.917c11.617,104.167 -41.471,140.671 -89.242,144.65c-8.296,0.658 -27.867,-0.333 -28.2,-0.333m-157.271,-7.638c33.183,-2.65 72.662,-53.408 64.704,-128.721c-5.317,-49.433 -28.867,-84.596 -62.708,-89.567c-12.938,-1.996 -21.9,-1.325 -25.879,-1.004l0,218.638c3.979,0.992 10.946,1.658 23.883,0.654m-27.863,7.638l-19.571,0l0,-232.233l21.233,0c0.333,0 18.246,-0.992 29.188,0c25.212,2.317 78.3,15.925 86.592,87.917c11.617,104.167 -41.471,140.671 -89.242,144.65c-8.292,0.658 -27.867,-0.333 -28.2,-0.333m-99.533,-232.233l23.55,0l0,232.233l-23.55,0l0,-232.233Zm-225.95,0l21.571,0l65.346,158.579l59.063,-158.579l23.55,0l0,232.233l-23.55,0l0,-177.821l-56.733,126.392l-18.246,0l-60.708,-139.333l10.608,190.763l-22.225,0l1.325,-232.233Z" style="fill:#fff;fill-rule:nonzero;"/></g></svg>